<svg width="17" height="38" viewBox="0 0 17 38" fill="none" xmlns="http://www.w3.org/2000/svg">
<path d="M1.11992 14.993L1.12692 13.873L5.59992 9.848C5.97326 9.512 6.22292 9.19467 6.34892 8.896C6.47959 8.59267 6.54492 8.28233 6.54492 7.965C6.54492 7.57767 6.45626 7.22767 6.27892 6.915C6.10159 6.60233 5.85892 6.355 5.55092 6.173C5.24759 5.991 4.90226 5.9 4.51492 5.9C4.11359 5.9 3.75659 5.99567 3.44392 6.187C3.13126 6.37367 2.88392 6.62333 2.70192 6.936C2.52459 7.24867 2.43826 7.58933 2.44292 7.958H1.16892C1.16892 7.32333 1.31592 6.76333 1.60992 6.278C1.90392 5.788 2.30292 5.40533 2.80692 5.13C3.31559 4.85 3.89192 4.71 4.53592 4.71C5.16126 4.71 5.72126 4.85467 6.21592 5.144C6.71059 5.42867 7.10026 5.81833 7.38492 6.313C7.67426 6.803 7.81892 7.35833 7.81892 7.979C7.81892 8.41767 7.76292 8.798 7.65092 9.12C7.54359 9.442 7.37559 9.74067 7.14692 10.016C6.91826 10.2867 6.63126 10.576 6.28592 10.884L2.56892 14.223L2.40792 13.803H7.81892V14.993H1.11992ZM13.5742 15V13.145H8.94023V11.962L12.2652 4.92H13.6792L10.3542 11.962H13.5742V9.127H14.8342V11.962H15.8842V13.145H14.8342V15H13.5742ZM6.42313 34L10.0491 25.117H5.47113V23.92H11.3861V25.117L7.76713 34H6.42313Z" fill="#203224"/>
<line y1="19.5" x2="17" y2="19.5" stroke="black"/>
</svg>
